<?xml version="1.0" encoding="UTF-8" standalone="no"?>
<!DOCTYPE svg PUBLIC "-//W3C//DTD SVG 1.1//EN"
 "http://www.w3.org/Graphics/SVG/1.1/DTD/svg11.dtd">
<!-- Generated by graphviz version 2.40.1 (0)
 -->
<!-- Title: %3 Pages: 1 -->
<svg width="703pt" height="848pt"
 viewBox="0.00 0.00 702.90 848.00" xmlns="http://www.w3.org/2000/svg" xmlns:xlink="http://www.w3.org/1999/xlink">
<g id="graph0" class="graph" transform="scale(1 1) rotate(0) translate(4 844)">
<title>%3</title>
<polygon fill="#ffffff" stroke="transparent" points="-4,4 -4,-844 698.897,-844 698.897,4 -4,4"/>
<!-- InterfaceModel -->
<g id="node1" class="node">
<title>InterfaceModel</title>
<g id="a_node1"><a xlink:href="http://www.emmc.info/emmc-csa/demo#DEMO_15116577-6557-4d9d-9eb5-cb54f0e618ad" xlink:title="InterfaceModel">
<ellipse fill="#ffffcc" stroke="#000000" cx="561.4066" cy="-666" rx="81.4863" ry="18"/>
<text text-anchor="middle" x="561.4066" y="-662.3" font-family="Times,serif" font-size="14.00" fill="#000000">InterfaceModel</text>
</a>
</g>
</g>
<!-- CrystalUnitCell -->
<g id="node5" class="node">
<title>CrystalUnitCell</title>
<g id="a_node5"><a xlink:href="http://www.emmc.info/emmc-csa/demo#DEMO_3e529aa6-c97c-4684-b679-849d10c59ca0" xlink:title="CrystalUnitCell">
<ellipse fill="#ffffcc" stroke="#000000" cx="307.026" cy="-666" rx="83.3857" ry="18"/>
<text text-anchor="middle" x="307.026" y="-662.3" font-family="Times,serif" font-size="14.00" fill="#000000">CrystalUnitCell</text>
</a>
</g>
</g>
<!-- InterfaceModel&#45;&gt;CrystalUnitCell -->
<g id="edge3" class="edge">
<title>InterfaceModel&#45;&gt;CrystalUnitCell</title>
<path fill="none" stroke="#000000" d="M479.8693,-666C454.5956,-666 426.549,-666 400.5294,-666"/>
<polygon fill="none" stroke="#000000" points="400.286,-662.5001 390.286,-666 400.2859,-669.5001 400.286,-662.5001"/>
</g>
<!-- Area -->
<g id="node11" class="node">
<title>Area</title>
<g id="a_node11"><a xlink:href="http://www.emmc.info/emmc-csa/demo#DEMO_86a32a26-e007-4fbc-953b-85b5b271dc28" xlink:title="Area">
<ellipse fill="#ffffcc" stroke="#000000" cx="561.4066" cy="-180" rx="32.4942" ry="18"/>
<text text-anchor="middle" x="561.4066" y="-176.3" font-family="Times,serif" font-size="14.00" fill="#000000">Area</text>
</a>
</g>
</g>
<!-- InterfaceModel&#45;&gt;Area -->
<g id="edge4" class="edge">
<title>InterfaceModel&#45;&gt;Area</title>
<path fill="none" stroke="#ffa500" stroke-dasharray="1,5" d="M636.8208,-659.1221C653.2608,-653.7102 668.4474,-644.7248 677.5479,-630 689.6397,-610.435 689.6397,-235.565 677.5479,-216 662.4596,-191.5867 630.6416,-182.9505 604.1183,-180.2192"/>
<polygon fill="#ffa500" stroke="#ffa500" points="604.1295,-176.7096 593.8874,-179.4207 603.5847,-183.6883 604.1295,-176.7096"/>
</g>
<!-- Position -->
<g id="node2" class="node">
<title>Position</title>
<g id="a_node2"><a xlink:href="http://www.emmc.info/emmc-csa/demo#DEMO_35227902-45c6-4d3a-a754-3aa7084c3647" xlink:title="Position">
<ellipse fill="#ffffcc" stroke="#000000" cx="561.4066" cy="-504" rx="48.1917" ry="18"/>
<text text-anchor="middle" x="561.4066" y="-500.3" font-family="Times,serif" font-size="14.00" fill="#000000">Position</text>
</a>
</g>
</g>
<!-- Length -->
<g id="node13" class="node">
<title>Length</title>
<g id="a_node13"><a xlink:href="http://emmo.info/emmo/middle/isq#EMMO_cd2cd0de_e0cc_4ef1_b27e_2e88db027bac" xlink:title="Length">
<ellipse fill="#ffffcc" stroke="#ff0000" cx="307.026" cy="-531" rx="43.5923" ry="18"/>
<text text-anchor="middle" x="307.026" y="-527.3" font-family="Times,serif" font-size="14.00" fill="#000000">Length</text>
</a>
</g>
</g>
<!-- Position&#45;&gt;Length -->
<g id="edge1" class="edge">
<title>Position&#45;&gt;Length</title>
<path fill="none" stroke="#000000" d="M515.045,-508.9208C471.0796,-513.5873 405.113,-520.589 359.298,-525.4518"/>
<polygon fill="none" stroke="#000000" points="358.8417,-521.9805 349.267,-526.5165 359.5806,-528.9414 358.8417,-521.9805"/>
</g>
<!-- Real -->
<g id="node14" class="node">
<title>Real</title>
<g id="a_node14"><a xlink:href="http://emmo.info/emmo/middle/math#EMMO_18d180e4_5e3e_42f7_820c_e08951223486" xlink:title="Real">
<ellipse fill="#ffc880" stroke="#ff0000" cx="561.4066" cy="-450" rx="31.3957" ry="18"/>
<text text-anchor="middle" x="561.4066" y="-446.3" font-family="Times,serif" font-size="14.00" fill="#000000">Real</text>
</a>
</g>
</g>
<!-- Position&#45;&gt;Real -->
<g id="edge2" class="edge">
<title>Position&#45;&gt;Real</title>
<path fill="none" stroke="#ffa500" stroke-dasharray="5,2" d="M561.4066,-485.7902C561.4066,-483.3082 561.4066,-480.8262 561.4066,-478.3443"/>
<polygon fill="#ffa500" stroke="#ffa500" points="564.9067,-478.1406 561.4066,-468.1406 557.9067,-478.1407 564.9067,-478.1406"/>
</g>
<!-- LatticeVector -->
<g id="node3" class="node">
<title>LatticeVector</title>
<g id="a_node3"><a xlink:href="http://www.emmc.info/emmc-csa/demo#DEMO_6c4ba548-cfa3-4741-8aee-f0414635c87d" xlink:title="LatticeVector">
<ellipse fill="#ffffcc" stroke="#000000" cx="561.4066" cy="-558" rx="72.5877" ry="18"/>
<text text-anchor="middle" x="561.4066" y="-554.3" font-family="Times,serif" font-size="14.00" fill="#000000">LatticeVector</text>
</a>
</g>
</g>
<!-- LatticeVector&#45;&gt;Length -->
<g id="edge20" class="edge">
<title>LatticeVector&#45;&gt;Length</title>
<path fill="none" stroke="#000000" d="M494.2383,-550.8708C452.0798,-546.396 398.5058,-540.7097 359.4796,-536.5674"/>
<polygon fill="none" stroke="#000000" points="359.6979,-533.071 349.3843,-535.4959 358.959,-540.0319 359.6979,-533.071"/>
</g>
<!-- LatticeVector&#45;&gt;Real -->
<g id="edge21" class="edge">
<title>LatticeVector&#45;&gt;Real</title>
<path fill="none" stroke="#ffa500" stroke-dasharray="5,2" d="M631.3687,-552.7778C649.8539,-547.6134 667.4486,-538.341 677.5479,-522 685.9596,-508.3896 685.9596,-499.6104 677.5479,-486 662.2637,-461.2697 629.8123,-452.7288 603.0877,-450.1158"/>
<polygon fill="#ffa500" stroke="#ffa500" points="603.0298,-446.6023 592.8014,-449.3646 602.5199,-453.5837 603.0298,-446.6023"/>
</g>
<!-- Crystal -->
<g id="node4" class="node">
<title>Crystal</title>
<g id="a_node4"><a xlink:href="http://www.emmc.info/emmc-csa/demo#DEMO_2dd0c4d4-133c-4597-aeed-b7e42dd0183a" xlink:title="Crystal">
<ellipse fill="#ffffcc" stroke="#000000" cx="561.4066" cy="-612" rx="44.393" ry="18"/>
<text text-anchor="middle" x="561.4066" y="-608.3" font-family="Times,serif" font-size="14.00" fill="#000000">Crystal</text>
</a>
</g>
</g>
<!-- Crystal&#45;&gt;CrystalUnitCell -->
<g id="edge12" class="edge">
<title>Crystal&#45;&gt;CrystalUnitCell</title>
<path fill="none" stroke="#006400" d="M521.9387,-620.3783C483.195,-628.6028 423.2779,-641.322 376.5414,-651.2432"/>
<polygon fill="#006400" stroke="#006400" points="375.5352,-647.8788 366.48,-653.3791 376.9888,-654.7262 375.5352,-647.8788"/>
</g>
<!-- Solid -->
<g id="node18" class="node">
<title>Solid</title>
<g id="a_node18"><a xlink:href="http://emmo.info/emmo/middle/materials#EMMO_a2b006f2_bbfd_4dba_bcaa_3fca20cd6be1" xlink:title="Solid">
<ellipse fill="#ffffcc" stroke="#ff0000" cx="307.026" cy="-612" rx="34.394" ry="18"/>
<text text-anchor="middle" x="307.026" y="-608.3" font-family="Times,serif" font-size="14.00" fill="#000000">Solid</text>
</a>
</g>
</g>
<!-- Crystal&#45;&gt;Solid -->
<g id="edge11" class="edge">
<title>Crystal&#45;&gt;Solid</title>
<path fill="none" stroke="#000000" d="M517.0969,-612C470.7784,-612 398.4865,-612 351.9426,-612"/>
<polygon fill="none" stroke="#000000" points="351.8465,-608.5001 341.8465,-612 351.8465,-615.5001 351.8465,-608.5001"/>
</g>
<!-- CrystalUnitCell&#45;&gt;LatticeVector -->
<g id="edge9" class="edge">
<title>CrystalUnitCell&#45;&gt;LatticeVector</title>
<path fill="none" stroke="#ffa500" stroke-dasharray="1,5" d="M382.5159,-658.2185C398.2417,-654.1637 414.0386,-648.0846 427.2653,-639 451.0416,-622.6694 439.8842,-601.8916 463.2653,-585 471.3764,-579.1401 480.701,-574.5515 490.3053,-570.9586"/>
<polygon fill="#ffa500" stroke="#ffa500" points="491.6187,-574.2092 499.9683,-567.6873 489.374,-567.5788 491.6187,-574.2092"/>
</g>
<!-- StiffnessTensor -->
<g id="node6" class="node">
<title>StiffnessTensor</title>
<g id="a_node6"><a xlink:href="http://www.emmc.info/emmc-csa/demo#DEMO_7a270c65-6af0-4fac-8d28-4e1ee0b83e55" xlink:title="StiffnessTensor">
<ellipse fill="#ffffcc" stroke="#000000" cx="561.4066" cy="-396" rx="82.5854" ry="18"/>
<text text-anchor="middle" x="561.4066" y="-392.3" font-family="Times,serif" font-size="14.00" fill="#000000">StiffnessTensor</text>
</a>
</g>
</g>
<!-- CrystalUnitCell&#45;&gt;StiffnessTensor -->
<g id="edge10" class="edge">
<title>CrystalUnitCell&#45;&gt;StiffnessTensor</title>
<path fill="none" stroke="#ffa500" stroke-dasharray="1,5" d="M387.6778,-661.5508C402.5387,-657.2238 416.6806,-650.1917 427.2653,-639 494.1395,-568.2904 398.0922,-495.2805 463.2653,-423 468.228,-417.496 474.1986,-413.0708 480.7135,-409.5186"/>
<polygon fill="#ffa500" stroke="#ffa500" points="482.3357,-412.6234 489.8915,-405.1964 479.3533,-406.2905 482.3357,-412.6234"/>
</g>
<!-- MaterialState -->
<g id="node16" class="node">
<title>MaterialState</title>
<g id="a_node16"><a xlink:href="http://emmo.info/emmo/middle/materials#EMMO_20fff605_465f_4034_8696_e53e90ec83f4" xlink:title="MaterialState">
<ellipse fill="#ffc880" stroke="#ff0000" cx="75.3933" cy="-666" rx="75.2868" ry="18"/>
<text text-anchor="middle" x="75.3933" y="-662.3" font-family="Times,serif" font-size="14.00" fill="#000000">MaterialState</text>
</a>
</g>
</g>
<!-- CrystalUnitCell&#45;&gt;MaterialState -->
<g id="edge7" class="edge">
<title>CrystalUnitCell&#45;&gt;MaterialState</title>
<path fill="none" stroke="#000000" d="M223.7285,-666C203.4237,-666 181.6679,-666 161.2466,-666"/>
<polygon fill="none" stroke="#000000" points="161.0238,-662.5001 151.0237,-666 161.0237,-669.5001 161.0238,-662.5001"/>
</g>
<!-- BondedAtom -->
<g id="node17" class="node">
<title>BondedAtom</title>
<g id="a_node17"><a xlink:href="http://emmo.info/emmo/middle/materials#EMMO_8303a247_f9d9_4616_bdcd_f5cbd7b298e3" xlink:title="BondedAtom">
<ellipse fill="#ffffcc" stroke="#ff0000" cx="561.4066" cy="-18" rx="70.3881" ry="18"/>
<text text-anchor="middle" x="561.4066" y="-14.3" font-family="Times,serif" font-size="14.00" fill="#000000">BondedAtom</text>
</a>
</g>
</g>
<!-- CrystalUnitCell&#45;&gt;BondedAtom -->
<g id="edge8" class="edge">
<title>CrystalUnitCell&#45;&gt;BondedAtom</title>
<path fill="none" stroke="#006400" d="M388.6071,-662.3848C403.4007,-657.9973 417.2803,-650.7298 427.2653,-639 512.9849,-538.3017 379.9655,-147.7091 463.2653,-45 469.3375,-37.5129 477.2782,-31.9907 486.0153,-27.9359"/>
<polygon fill="#006400" stroke="#006400" points="487.3632,-31.1665 495.3636,-24.2207 484.7779,-24.6614 487.3632,-31.1665"/>
</g>
<!-- StiffnessTensor&#45;&gt;Real -->
<g id="edge15" class="edge">
<title>StiffnessTensor&#45;&gt;Real</title>
<path fill="none" stroke="#ffa500" stroke-dasharray="5,2" d="M561.4066,-414.1406C561.4066,-416.6226 561.4066,-419.1046 561.4066,-421.5865"/>
<polygon fill="#ffa500" stroke="#ffa500" points="557.9067,-421.7901 561.4066,-431.7902 564.9067,-421.7902 557.9067,-421.7901"/>
</g>
<!-- Pressure -->
<g id="node20" class="node">
<title>Pressure</title>
<g id="a_node20"><a xlink:href="http://emmo.info/emmo/middle/isq#EMMO_50a44256_9dc5_434b_bad4_74a4d9a29989" xlink:title="Pressure">
<ellipse fill="#ffffcc" stroke="#ff0000" cx="307.026" cy="-396" rx="51.9908" ry="18"/>
<text text-anchor="middle" x="307.026" y="-392.3" font-family="Times,serif" font-size="14.00" fill="#000000">Pressure</text>
</a>
</g>
</g>
<!-- StiffnessTensor&#45;&gt;Pressure -->
<g id="edge14" class="edge">
<title>StiffnessTensor&#45;&gt;Pressure</title>
<path fill="none" stroke="#000000" d="M478.8165,-396C443.341,-396 402.5652,-396 369.6444,-396"/>
<polygon fill="none" stroke="#000000" points="369.2485,-392.5001 359.2485,-396 369.2485,-399.5001 369.2485,-392.5001"/>
</g>
<!-- SquareMetre -->
<g id="node7" class="node">
<title>SquareMetre</title>
<g id="a_node7"><a xlink:href="http://www.emmc.info/emmc-csa/demo#DEMO_f9e7223b-4af3-4922-afa8-ffa94285fd20" xlink:title="SquareMetre">
<ellipse fill="#ffffcc" stroke="#000000" cx="561.4066" cy="-720" rx="72.2875" ry="18"/>
<text text-anchor="middle" x="561.4066" y="-716.3" font-family="Times,serif" font-size="14.00" fill="#000000">SquareMetre</text>
</a>
</g>
</g>
<!-- SICoherentDerivedUnit -->
<g id="node19" class="node">
<title>SICoherentDerivedUnit</title>
<g id="a_node19"><a xlink:href="http://emmo.info/emmo/middle/siunits#EMMO_1273eb34_de48_43a9_925f_104110469dd2" xlink:title="SICoherentDerivedUnit">
<ellipse fill="#ffffcc" stroke="#ff0000" cx="307.026" cy="-720" rx="120.4791" ry="18"/>
<text text-anchor="middle" x="307.026" y="-716.3" font-family="Times,serif" font-size="14.00" fill="#000000">SICoherentDerivedUnit</text>
</a>
</g>
</g>
<!-- SquareMetre&#45;&gt;SICoherentDerivedUnit -->
<g id="edge13" class="edge">
<title>SquareMetre&#45;&gt;SICoherentDerivedUnit</title>
<path fill="none" stroke="#000000" d="M489.1917,-720C473.1065,-720 455.5686,-720 437.9354,-720"/>
<polygon fill="none" stroke="#000000" points="437.5525,-716.5001 427.5524,-720 437.5524,-723.5001 437.5525,-716.5001"/>
</g>
<!-- Phase -->
<g id="node8" class="node">
<title>Phase</title>
<g id="a_node8"><a xlink:href="http://www.emmc.info/emmc-csa/demo#DEMO_11a50b9c-df3c-4ec0-82b7-5762b111f63d" xlink:title="Phase">
<ellipse fill="#ffffcc" stroke="#000000" cx="561.4066" cy="-342" rx="38.1938" ry="18"/>
<text text-anchor="middle" x="561.4066" y="-338.3" font-family="Times,serif" font-size="14.00" fill="#000000">Phase</text>
</a>
</g>
</g>
<!-- Phase&#45;&gt;StiffnessTensor -->
<g id="edge25" class="edge">
<title>Phase&#45;&gt;StiffnessTensor</title>
<path fill="none" stroke="#ffa500" stroke-dasharray="1,5" d="M561.4066,-360.1406C561.4066,-362.6226 561.4066,-365.1046 561.4066,-367.5865"/>
<polygon fill="#ffa500" stroke="#ffa500" points="557.9067,-367.7901 561.4066,-377.7902 564.9067,-367.7902 557.9067,-367.7901"/>
</g>
<!-- Continuum -->
<g id="node21" class="node">
<title>Continuum</title>
<g id="a_node21"><a xlink:href="http://emmo.info/emmo/middle/materials#EMMO_8b0923ab_b500_477b_9ce9_8b3a3e4dc4f2" xlink:title="Continuum">
<ellipse fill="#ffffcc" stroke="#ff0000" cx="307.026" cy="-288" rx="61.99" ry="18"/>
<text text-anchor="middle" x="307.026" y="-284.3" font-family="Times,serif" font-size="14.00" fill="#000000">Continuum</text>
</a>
</g>
</g>
<!-- Phase&#45;&gt;Continuum -->
<g id="edge24" class="edge">
<title>Phase&#45;&gt;Continuum</title>
<path fill="none" stroke="#000000" d="M526.3031,-334.5482C485.2446,-325.8323 416.5919,-311.2587 367.0299,-300.7377"/>
<polygon fill="none" stroke="#000000" points="367.5823,-297.277 357.0735,-298.6241 366.1287,-304.1244 367.5823,-297.277"/>
</g>
<!-- WeldedComponent -->
<g id="node9" class="node">
<title>WeldedComponent</title>
<g id="a_node9"><a xlink:href="http://www.emmc.info/emmc-csa/demo#DEMO_b620001d-87c7-4301-adad-2c152828438e" xlink:title="WeldedComponent">
<ellipse fill="#ffffcc" stroke="#000000" cx="561.4066" cy="-126" rx="98.2828" ry="18"/>
<text text-anchor="middle" x="561.4066" y="-122.3" font-family="Times,serif" font-size="14.00" fill="#000000">WeldedComponent</text>
</a>
</g>
</g>
<!-- Boundary -->
<g id="node12" class="node">
<title>Boundary</title>
<g id="a_node12"><a xlink:href="http://www.emmc.info/emmc-csa/demo#DEMO_ee57b87c-00cd-47fb-9330-5303ddd214f8" xlink:title="Boundary">
<ellipse fill="#ffc880" stroke="#000000" cx="561.4066" cy="-234" rx="55.7903" ry="18"/>
<text text-anchor="middle" x="561.4066" y="-230.3" font-family="Times,serif" font-size="14.00" fill="#000000">Boundary</text>
</a>
</g>
</g>
<!-- WeldedComponent&#45;&gt;Boundary -->
<g id="edge19" class="edge">
<title>WeldedComponent&#45;&gt;Boundary</title>
<path fill="none" stroke="#006400" d="M644.526,-135.7299C657.9231,-141.2831 669.8902,-149.6096 677.5479,-162 685.9596,-175.6104 685.9596,-184.3896 677.5479,-198 666.6275,-215.6695 646.9434,-225.0744 626.8459,-229.9576"/>
<polygon fill="#006400" stroke="#006400" points="626.0615,-226.5457 616.9833,-232.0079 627.4863,-233.3992 626.0615,-226.5457"/>
</g>
<!-- Component -->
<g id="node22" class="node">
<title>Component</title>
<g id="a_node22"><a xlink:href="http://emmo.info/emmo/middle/manufacturing#EMMO_494b372c_cfdf_47d3_a4de_5e037c540de8" xlink:title="Component">
<ellipse fill="#ffffcc" stroke="#ff0000" cx="307.026" cy="-126" rx="63.8893" ry="18"/>
<text text-anchor="middle" x="307.026" y="-122.3" font-family="Times,serif" font-size="14.00" fill="#000000">Component</text>
</a>
</g>
</g>
<!-- WeldedComponent&#45;&gt;Component -->
<g id="edge17" class="edge">
<title>WeldedComponent&#45;&gt;Component</title>
<path fill="none" stroke="#000000" d="M463.0564,-126C435.7793,-126 406.634,-126 381.0052,-126"/>
<polygon fill="none" stroke="#000000" points="380.9976,-122.5001 370.9975,-126 380.9975,-129.5001 380.9976,-122.5001"/>
</g>
<!-- Material -->
<g id="node23" class="node">
<title>Material</title>
<g id="a_node23"><a xlink:href="http://emmo.info/emmo/middle/physicalistic#EMMO_4207e895_8b83_4318_996a_72cfb32acd94" xlink:title="Material">
<ellipse fill="#ffffcc" stroke="#ff0000" cx="561.4066" cy="-72" rx="50.0912" ry="18"/>
<text text-anchor="middle" x="561.4066" y="-68.3" font-family="Times,serif" font-size="14.00" fill="#000000">Material</text>
</a>
</g>
</g>
<!-- WeldedComponent&#45;&gt;Material -->
<g id="edge18" class="edge">
<title>WeldedComponent&#45;&gt;Material</title>
<path fill="none" stroke="#006400" d="M561.4066,-107.7902C561.4066,-105.3082 561.4066,-102.8262 561.4066,-100.3443"/>
<polygon fill="#006400" stroke="#006400" points="564.9067,-100.1406 561.4066,-90.1406 557.9067,-100.1407 564.9067,-100.1406"/>
</g>
<!-- RVE -->
<g id="node10" class="node">
<title>RVE</title>
<g id="a_node10"><a xlink:href="http://www.emmc.info/emmc-csa/demo#DEMO_3f022006-0a59-4bc6-8642-e068ad4e458a" xlink:title="RVE">
<ellipse fill="#ffffcc" stroke="#000000" cx="561.4066" cy="-288" rx="30.5947" ry="18"/>
<text text-anchor="middle" x="561.4066" y="-284.3" font-family="Times,serif" font-size="14.00" fill="#000000">RVE</text>
</a>
</g>
</g>
<!-- RVE&#45;&gt;Continuum -->
<g id="edge16" class="edge">
<title>RVE&#45;&gt;Continuum</title>
<path fill="none" stroke="#000000" d="M530.7223,-288C493.3871,-288 429.1387,-288 379.0489,-288"/>
<polygon fill="none" stroke="#000000" points="378.9114,-284.5001 368.9114,-288 378.9114,-291.5001 378.9114,-284.5001"/>
</g>
<!-- Area&#45;&gt;Real -->
<g id="edge6" class="edge">
<title>Area&#45;&gt;Real</title>
<path fill="none" stroke="#ffa500" stroke-dasharray="5,2" d="M593.8874,-179.4207C621.8995,-180.9357 660.4568,-188.346 677.5479,-216 700.68,-253.4286 700.68,-376.5714 677.5479,-414 662.2637,-438.7303 629.8123,-447.2712 603.0877,-449.8842"/>
<polygon fill="#ffa500" stroke="#ffa500" points="602.5199,-446.4163 592.8014,-450.6354 603.0298,-453.3977 602.5199,-446.4163"/>
</g>
<!-- ISQDerivedQuantity -->
<g id="node15" class="node">
<title>ISQDerivedQuantity</title>
<g id="a_node15"><a xlink:href="http://emmo.info/emmo/middle/isq#EMMO_2946d40b_24a1_47fa_8176_e3f79bb45064" xlink:title="ISQDerivedQuantity">
<ellipse fill="#ffffcc" stroke="#ff0000" cx="307.026" cy="-180" rx="104.7816" ry="18"/>
<text text-anchor="middle" x="307.026" y="-176.3" font-family="Times,serif" font-size="14.00" fill="#000000">ISQDerivedQuantity</text>
</a>
</g>
</g>
<!-- Area&#45;&gt;ISQDerivedQuantity -->
<g id="edge5" class="edge">
<title>Area&#45;&gt;ISQDerivedQuantity</title>
<path fill="none" stroke="#000000" d="M528.6715,-180C501.4487,-180 461.0006,-180 422.0818,-180"/>
<polygon fill="none" stroke="#000000" points="421.6954,-176.5001 411.6954,-180 421.6954,-183.5001 421.6954,-176.5001"/>
</g>
<!-- Boundary&#45;&gt;Area -->
<g id="edge23" class="edge">
<title>Boundary&#45;&gt;Area</title>
<path fill="none" stroke="#ffa500" stroke-dasharray="1,5" d="M561.4066,-215.7902C561.4066,-213.3082 561.4066,-210.8262 561.4066,-208.3443"/>
<polygon fill="#ffa500" stroke="#ffa500" points="564.9067,-208.1406 561.4066,-198.1406 557.9067,-208.1407 564.9067,-208.1406"/>
</g>
<!-- Boundary&#45;&gt;Continuum -->
<g id="edge22" class="edge">
<title>Boundary&#45;&gt;Continuum</title>
<path fill="none" stroke="#000000" d="M514.4528,-243.9674C472.9454,-252.7786 412.169,-265.6802 367.1233,-275.2425"/>
<polygon fill="none" stroke="#000000" points="366.2431,-271.8513 357.1879,-277.3516 367.6967,-278.6987 366.2431,-271.8513"/>
</g>
<!-- key1 -->
<g id="node24" class="node">
<title>key1</title>
<text text-anchor="start" x="360.026" y="-822.8" font-family="Times,serif" font-size="14.00" fill="#000000">isA</text>
<text text-anchor="start" x="294.026" y="-803.8" font-family="Times,serif" font-size="14.00" fill="#000000">hasProperty</text>
<text text-anchor="start" x="232.026" y="-784.8" font-family="Times,serif" font-size="14.00" fill="#000000">hasSpatialDirectPart</text>
<text text-anchor="start" x="322.026" y="-765.8" font-family="Times,serif" font-size="14.00" fill="#000000">hasType</text>
</g>
<!-- key2 -->
<g id="node25" class="node">
<title>key2</title>
<text text-anchor="start" x="559.4066" y="-822.8" font-family="Times,serif" font-size="14.00" fill="#000000"> </text>
<text text-anchor="start" x="559.4066" y="-803.8" font-family="Times,serif" font-size="14.00" fill="#000000"> </text>
<text text-anchor="start" x="559.4066" y="-784.8" font-family="Times,serif" font-size="14.00" fill="#000000"> </text>
<text text-anchor="start" x="559.4066" y="-765.8" font-family="Times,serif" font-size="14.00" fill="#000000"> </text>
</g>
<!-- key2&#45;&gt;key1 -->
<g id="edge26" class="edge">
<title>key2:w&#45;&gt;key1:e</title>
<path fill="none" stroke="#000000" d="M557.4066,-827C483.8101,-827 462.9314,-827 394.0713,-827"/>
<polygon fill="none" stroke="#000000" points="394.026,-823.5001 384.026,-827 394.0259,-830.5001 394.026,-823.5001"/>
</g>
<!-- key2&#45;&gt;key1 -->
<g id="edge27" class="edge">
<title>key2:w&#45;&gt;key1:e</title>
<path fill="none" stroke="#ffa500" stroke-dasharray="1,5" d="M557.4066,-808C483.8101,-808 462.9314,-808 394.0713,-808"/>
<polygon fill="#ffa500" stroke="#ffa500" points="394.026,-804.5001 384.026,-808 394.0259,-811.5001 394.026,-804.5001"/>
</g>
<!-- key2&#45;&gt;key1 -->
<g id="edge28" class="edge">
<title>key2:w&#45;&gt;key1:e</title>
<path fill="none" stroke="#006400" d="M557.4066,-788C483.8101,-788 462.9314,-788 394.0713,-788"/>
<polygon fill="#006400" stroke="#006400" points="394.026,-784.5001 384.026,-788 394.0259,-791.5001 394.026,-784.5001"/>
</g>
<!-- key2&#45;&gt;key1 -->
<g id="edge29" class="edge">
<title>key2:w&#45;&gt;key1:e</title>
<path fill="none" stroke="#ffa500" stroke-dasharray="5,2" d="M557.4066,-769C483.8101,-769 462.9314,-769 394.0713,-769"/>
<polygon fill="#ffa500" stroke="#ffa500" points="394.026,-765.5001 384.026,-769 394.0259,-772.5001 394.026,-765.5001"/>
</g>
</g>
</svg>
