<?xml version="1.0" encoding="UTF-8" standalone="no"?>
<!DOCTYPE svg PUBLIC "-//W3C//DTD SVG 1.1//EN"
 "http://www.w3.org/Graphics/SVG/1.1/DTD/svg11.dtd">
<!-- Generated by graphviz version 2.40.1 (0)
 -->
<!-- Title: %3 Pages: 1 -->
<svg width="600pt" height="560pt"
 viewBox="0.00 0.00 599.64 559.50" xmlns="http://www.w3.org/2000/svg" xmlns:xlink="http://www.w3.org/1999/xlink">
<g id="graph0" class="graph" transform="scale(1 1) rotate(0) translate(4 555.5)">
<title>%3</title>
<polygon fill="#ffffff" stroke="transparent" points="-4,4 -4,-555.5 595.6439,-555.5 595.6439,4 -4,4"/>
<!-- InterfaceModel -->
<g id="node1" class="node">
<title>InterfaceModel</title>
<g id="a_node1"><a xlink:href="http://www.emmc.info/emmc-csa/demo#DEMO_15116577-6557-4d9d-9eb5-cb54f0e618ad" xlink:title="InterfaceModel">
<ellipse fill="#ffffcc" stroke="#000000" cx="475.3293" cy="-450" rx="81.4863" ry="18"/>
<text text-anchor="middle" x="475.3293" y="-446.3" font-family="Times,serif" font-size="14.00" fill="#000000">InterfaceModel</text>
</a>
</g>
</g>
<!-- CrystalUnitCell -->
<g id="node3" class="node">
<title>CrystalUnitCell</title>
<g id="a_node3"><a xlink:href="http://www.emmc.info/emmc-csa/demo#DEMO_3e529aa6-c97c-4684-b679-849d10c59ca0" xlink:title="CrystalUnitCell">
<ellipse fill="#ffffcc" stroke="#000000" cx="271.7866" cy="-450" rx="83.3857" ry="18"/>
<text text-anchor="middle" x="271.7866" y="-446.3" font-family="Times,serif" font-size="14.00" fill="#000000">CrystalUnitCell</text>
</a>
</g>
</g>
<!-- InterfaceModel&#45;&gt;CrystalUnitCell -->
<g id="edge2" class="edge">
<title>InterfaceModel&#45;&gt;CrystalUnitCell</title>
<path fill="none" stroke="#000000" d="M394.0063,-450C384.6547,-450 375.0628,-450 365.5644,-450"/>
<polygon fill="none" stroke="#000000" points="365.31,-446.5001 355.31,-450 365.31,-453.5001 365.31,-446.5001"/>
</g>
<!-- Area -->
<g id="node8" class="node">
<title>Area</title>
<g id="a_node8"><a xlink:href="http://www.emmc.info/emmc-csa/demo#DEMO_86a32a26-e007-4fbc-953b-85b5b271dc28" xlink:title="Area">
<ellipse fill="#ffffcc" stroke="#ff0000" cx="475.3293" cy="-18" rx="32.4942" ry="18"/>
<text text-anchor="middle" x="475.3293" y="-14.3" font-family="Times,serif" font-size="14.00" fill="#000000">Area</text>
</a>
</g>
</g>
<!-- InterfaceModel&#45;&gt;Area -->
<g id="edge3" class="edge">
<title>InterfaceModel&#45;&gt;Area</title>
<path fill="none" stroke="#ffa500" stroke-dasharray="1,5" d="M542.5312,-439.8318C555.9653,-434.4492 568.2691,-426.3018 575.872,-414 596.9012,-379.974 596.9012,-88.026 575.872,-54 563.7548,-34.394 539.6975,-25.3403 518.1534,-21.2137"/>
<polygon fill="#ffa500" stroke="#ffa500" points="518.594,-17.7396 508.164,-19.6015 517.4786,-24.6502 518.594,-17.7396"/>
</g>
<!-- Crystal -->
<g id="node2" class="node">
<title>Crystal</title>
<g id="a_node2"><a xlink:href="http://www.emmc.info/emmc-csa/demo#DEMO_2dd0c4d4-133c-4597-aeed-b7e42dd0183a" xlink:title="Crystal">
<ellipse fill="#ffffcc" stroke="#000000" cx="475.3293" cy="-396" rx="44.393" ry="18"/>
<text text-anchor="middle" x="475.3293" y="-392.3" font-family="Times,serif" font-size="14.00" fill="#000000">Crystal</text>
</a>
</g>
</g>
<!-- Crystal&#45;&gt;CrystalUnitCell -->
<g id="edge9" class="edge">
<title>Crystal&#45;&gt;CrystalUnitCell</title>
<path fill="none" stroke="#006400" d="M437.9964,-405.9044C409.062,-413.5808 368.3224,-424.389 334.4192,-433.3835"/>
<polygon fill="#006400" stroke="#006400" points="333.3651,-430.042 324.597,-435.9894 335.1601,-436.808 333.3651,-430.042"/>
</g>
<!-- Solid -->
<g id="node13" class="node">
<title>Solid</title>
<g id="a_node13"><a xlink:href="http://emmo.info/emmo/middle/materials#EMMO_a2b006f2_bbfd_4dba_bcaa_3fca20cd6be1" xlink:title="Solid">
<ellipse fill="#ffffcc" stroke="#ff0000" cx="271.7866" cy="-396" rx="34.394" ry="18"/>
<text text-anchor="middle" x="271.7866" y="-392.3" font-family="Times,serif" font-size="14.00" fill="#000000">Solid</text>
</a>
</g>
</g>
<!-- Crystal&#45;&gt;Solid -->
<g id="edge8" class="edge">
<title>Crystal&#45;&gt;Solid</title>
<path fill="none" stroke="#000000" d="M430.9125,-396C396.9903,-396 350.4455,-396 316.4598,-396"/>
<polygon fill="none" stroke="#000000" points="316.3437,-392.5001 306.3437,-396 316.3436,-399.5001 316.3437,-392.5001"/>
</g>
<!-- MaterialState -->
<g id="node9" class="node">
<title>MaterialState</title>
<g id="a_node9"><a xlink:href="http://emmo.info/emmo/middle/materials#EMMO_20fff605_465f_4034_8696_e53e90ec83f4" xlink:title="MaterialState">
<ellipse fill="#ffc880" stroke="#ff0000" cx="75.3933" cy="-450" rx="75.2868" ry="18"/>
<text text-anchor="middle" x="75.3933" y="-446.3" font-family="Times,serif" font-size="14.00" fill="#000000">MaterialState</text>
</a>
</g>
</g>
<!-- CrystalUnitCell&#45;&gt;MaterialState -->
<g id="edge4" class="edge">
<title>CrystalUnitCell&#45;&gt;MaterialState</title>
<path fill="none" stroke="#000000" d="M188.4982,-450C179.4591,-450 170.2475,-450 161.1794,-450"/>
<polygon fill="none" stroke="#000000" points="161.0191,-446.5001 151.019,-450 161.019,-453.5001 161.0191,-446.5001"/>
</g>
<!-- BondedAtom -->
<g id="node10" class="node">
<title>BondedAtom</title>
<g id="a_node10"><a xlink:href="http://emmo.info/emmo/middle/materials#EMMO_8303a247_f9d9_4616_bdcd_f5cbd7b298e3" xlink:title="BondedAtom">
<ellipse fill="#ffffcc" stroke="#ff0000" cx="475.3293" cy="-342" rx="70.3881" ry="18"/>
<text text-anchor="middle" x="475.3293" y="-338.3" font-family="Times,serif" font-size="14.00" fill="#000000">BondedAtom</text>
</a>
</g>
</g>
<!-- CrystalUnitCell&#45;&gt;BondedAtom -->
<g id="edge5" class="edge">
<title>CrystalUnitCell&#45;&gt;BondedAtom</title>
<path fill="none" stroke="#006400" d="M330.5874,-437.1028C339.8872,-433.4798 348.9928,-428.8659 356.7866,-423 379.8331,-405.6546 369.8147,-386.4439 392.7866,-369 398.6479,-364.5492 405.275,-360.814 412.1628,-357.6834"/>
<polygon fill="#006400" stroke="#006400" points="413.7489,-360.8157 421.6692,-353.7788 411.0893,-354.3407 413.7489,-360.8157"/>
</g>
<!-- LatticeVector -->
<g id="node11" class="node">
<title>LatticeVector</title>
<g id="a_node11"><a xlink:href="http://www.emmc.info/emmc-csa/demo#DEMO_6c4ba548-cfa3-4741-8aee-f0414635c87d" xlink:title="LatticeVector">
<ellipse fill="#ffffcc" stroke="#ff0000" cx="475.3293" cy="-288" rx="72.5877" ry="18"/>
<text text-anchor="middle" x="475.3293" y="-284.3" font-family="Times,serif" font-size="14.00" fill="#000000">LatticeVector</text>
</a>
</g>
</g>
<!-- CrystalUnitCell&#45;&gt;LatticeVector -->
<g id="edge6" class="edge">
<title>CrystalUnitCell&#45;&gt;LatticeVector</title>
<path fill="none" stroke="#ffa500" stroke-dasharray="1,5" d="M334.1978,-437.8447C342.5312,-434.1389 350.3916,-429.3049 356.7866,-423 392.8165,-387.4775 356.9092,-350.6765 392.7866,-315 397.3471,-310.465 402.6796,-306.6917 408.4001,-303.5522"/>
<polygon fill="#ffa500" stroke="#ffa500" points="410.1456,-306.597 417.6537,-299.1218 407.1227,-300.2833 410.1456,-306.597"/>
</g>
<!-- StiffnessTensor -->
<g id="node12" class="node">
<title>StiffnessTensor</title>
<g id="a_node12"><a xlink:href="http://www.emmc.info/emmc-csa/demo#DEMO_7a270c65-6af0-4fac-8d28-4e1ee0b83e55" xlink:title="StiffnessTensor">
<ellipse fill="#ffffcc" stroke="#ff0000" cx="475.3293" cy="-234" rx="82.5854" ry="18"/>
<text text-anchor="middle" x="475.3293" y="-230.3" font-family="Times,serif" font-size="14.00" fill="#000000">StiffnessTensor</text>
</a>
</g>
</g>
<!-- CrystalUnitCell&#45;&gt;StiffnessTensor -->
<g id="edge7" class="edge">
<title>CrystalUnitCell&#45;&gt;StiffnessTensor</title>
<path fill="none" stroke="#ffa500" stroke-dasharray="1,5" d="M335.2222,-438.2241C343.3111,-434.4623 350.8294,-429.5118 356.7866,-423 406.5713,-368.5805 343.2355,-315.6323 392.7866,-261 396.305,-257.1208 400.3882,-253.7973 404.8181,-250.95"/>
<polygon fill="#ffa500" stroke="#ffa500" points="406.6457,-253.939 413.7073,-246.0406 403.2615,-247.8114 406.6457,-253.939"/>
</g>
<!-- Phase -->
<g id="node4" class="node">
<title>Phase</title>
<g id="a_node4"><a xlink:href="http://www.emmc.info/emmc-csa/demo#DEMO_11a50b9c-df3c-4ec0-82b7-5762b111f63d" xlink:title="Phase">
<ellipse fill="#ffffcc" stroke="#000000" cx="475.3293" cy="-180" rx="38.1938" ry="18"/>
<text text-anchor="middle" x="475.3293" y="-176.3" font-family="Times,serif" font-size="14.00" fill="#000000">Phase</text>
</a>
</g>
</g>
<!-- Continuum -->
<g id="node7" class="node">
<title>Continuum</title>
<g id="a_node7"><a xlink:href="http://emmo.info/emmo/middle/materials#EMMO_8b0923ab_b500_477b_9ce9_8b3a3e4dc4f2" xlink:title="Continuum">
<ellipse fill="#ffffcc" stroke="#ff0000" cx="271.7866" cy="-126" rx="61.99" ry="18"/>
<text text-anchor="middle" x="271.7866" y="-122.3" font-family="Times,serif" font-size="14.00" fill="#000000">Continuum</text>
</a>
</g>
</g>
<!-- Phase&#45;&gt;Continuum -->
<g id="edge12" class="edge">
<title>Phase&#45;&gt;Continuum</title>
<path fill="none" stroke="#000000" d="M441.7184,-171.083C410.7553,-162.8685 364.214,-150.521 327.6631,-140.8241"/>
<polygon fill="none" stroke="#000000" points="328.2032,-137.3463 317.64,-138.1649 326.4081,-144.1123 328.2032,-137.3463"/>
</g>
<!-- Phase&#45;&gt;StiffnessTensor -->
<g id="edge13" class="edge">
<title>Phase&#45;&gt;StiffnessTensor</title>
<path fill="none" stroke="#ffa500" stroke-dasharray="1,5" d="M475.3293,-198.1406C475.3293,-200.6226 475.3293,-203.1046 475.3293,-205.5865"/>
<polygon fill="#ffa500" stroke="#ffa500" points="471.8294,-205.7901 475.3293,-215.7902 478.8294,-205.7902 471.8294,-205.7901"/>
</g>
<!-- RVE -->
<g id="node5" class="node">
<title>RVE</title>
<g id="a_node5"><a xlink:href="http://www.emmc.info/emmc-csa/demo#DEMO_3f022006-0a59-4bc6-8642-e068ad4e458a" xlink:title="RVE">
<ellipse fill="#ffffcc" stroke="#000000" cx="475.3293" cy="-126" rx="30.5947" ry="18"/>
<text text-anchor="middle" x="475.3293" y="-122.3" font-family="Times,serif" font-size="14.00" fill="#000000">RVE</text>
</a>
</g>
</g>
<!-- RVE&#45;&gt;Continuum -->
<g id="edge1" class="edge">
<title>RVE&#45;&gt;Continuum</title>
<path fill="none" stroke="#000000" d="M444.4155,-126C417.7947,-126 378.3328,-126 343.8556,-126"/>
<polygon fill="none" stroke="#000000" points="343.8085,-122.5001 333.8085,-126 343.8084,-129.5001 343.8085,-122.5001"/>
</g>
<!-- Boundary -->
<g id="node6" class="node">
<title>Boundary</title>
<g id="a_node6"><a xlink:href="http://www.emmc.info/emmc-csa/demo#DEMO_ee57b87c-00cd-47fb-9330-5303ddd214f8" xlink:title="Boundary">
<ellipse fill="#ffc880" stroke="#000000" cx="475.3293" cy="-72" rx="55.7903" ry="18"/>
<text text-anchor="middle" x="475.3293" y="-68.3" font-family="Times,serif" font-size="14.00" fill="#000000">Boundary</text>
</a>
</g>
</g>
<!-- Boundary&#45;&gt;Continuum -->
<g id="edge10" class="edge">
<title>Boundary&#45;&gt;Continuum</title>
<path fill="none" stroke="#000000" d="M432.1631,-83.452C401.7056,-91.5324 360.6249,-102.4312 327.6664,-111.1751"/>
<polygon fill="none" stroke="#000000" points="326.4875,-107.8667 317.7194,-113.814 328.2825,-114.6326 326.4875,-107.8667"/>
</g>
<!-- Boundary&#45;&gt;Area -->
<g id="edge11" class="edge">
<title>Boundary&#45;&gt;Area</title>
<path fill="none" stroke="#ffa500" stroke-dasharray="1,5" d="M475.3293,-53.7902C475.3293,-51.3082 475.3293,-48.8262 475.3293,-46.3443"/>
<polygon fill="#ffa500" stroke="#ffa500" points="478.8294,-46.1406 475.3293,-36.1406 471.8294,-46.1407 478.8294,-46.1406"/>
</g>
<!-- key1 -->
<g id="node14" class="node">
<title>key1</title>
<text text-anchor="start" x="324.7866" y="-533.8" font-family="Times,serif" font-size="14.00" fill="#000000">isA</text>
<text text-anchor="start" x="258.7866" y="-514.8" font-family="Times,serif" font-size="14.00" fill="#000000">hasProperty</text>
<text text-anchor="start" x="196.7866" y="-495.8" font-family="Times,serif" font-size="14.00" fill="#000000">hasSpatialDirectPart</text>
</g>
<!-- key2 -->
<g id="node15" class="node">
<title>key2</title>
<text text-anchor="start" x="473.3293" y="-533.8" font-family="Times,serif" font-size="14.00" fill="#000000"> </text>
<text text-anchor="start" x="473.3293" y="-514.8" font-family="Times,serif" font-size="14.00" fill="#000000"> </text>
<text text-anchor="start" x="473.3293" y="-495.8" font-family="Times,serif" font-size="14.00" fill="#000000"> </text>
</g>
<!-- key2&#45;&gt;key1 -->
<g id="edge14" class="edge">
<title>key2:w&#45;&gt;key1:e</title>
<path fill="none" stroke="#000000" d="M471.3293,-538C420.3762,-538 405.1749,-538 358.8304,-538"/>
<polygon fill="none" stroke="#000000" points="358.7867,-534.5001 348.7866,-538 358.7866,-541.5001 358.7867,-534.5001"/>
</g>
<!-- key2&#45;&gt;key1 -->
<g id="edge15" class="edge">
<title>key2:w&#45;&gt;key1:e</title>
<path fill="none" stroke="#ffa500" stroke-dasharray="1,5" d="M471.3293,-518C420.3762,-518 405.1749,-518 358.8304,-518"/>
<polygon fill="#ffa500" stroke="#ffa500" points="358.7867,-514.5001 348.7866,-518 358.7866,-521.5001 358.7867,-514.5001"/>
</g>
<!-- key2&#45;&gt;key1 -->
<g id="edge16" class="edge">
<title>key2:w&#45;&gt;key1:e</title>
<path fill="none" stroke="#006400" d="M471.3293,-499C420.3762,-499 405.1749,-499 358.8304,-499"/>
<polygon fill="#006400" stroke="#006400" points="358.7867,-495.5001 348.7866,-499 358.7866,-502.5001 358.7867,-495.5001"/>
</g>
</g>
</svg>
