<?xml version="1.0" encoding="UTF-8" standalone="no"?>
<!DOCTYPE svg PUBLIC "-//W3C//DTD SVG 1.1//EN"
 "http://www.w3.org/Graphics/SVG/1.1/DTD/svg11.dtd">
<!-- Generated by graphviz version 2.40.1 (0)
 -->
<!-- Title: %3 Pages: 1 -->
<svg width="1730pt" height="342pt"
 viewBox="0.00 0.00 1730.24 342.00" xmlns="http://www.w3.org/2000/svg" xmlns:xlink="http://www.w3.org/1999/xlink">
<g id="graph0" class="graph" transform="scale(1 1) rotate(0) translate(4 338)">
<title>%3</title>
<polygon fill="#ffffff" stroke="transparent" points="-4,4 -4,-338 1726.2428,-338 1726.2428,4 -4,4"/>
<!-- Nucleus -->
<g id="node1" class="node">
<title>Nucleus</title>
<g id="a_node1"><a xlink:href="http://emmo.info/emmo/middle/materials#EMMO_f835f4d4_c665_403d_ab25_dca5cc74be52" xlink:title="Nucleus">
<ellipse fill="#ffffcc" stroke="#000000" cx="1032.2428" cy="-100" rx="48.1917" ry="18"/>
<text text-anchor="middle" x="1032.2428" y="-96.3" font-family="Times,serif" font-size="14.00" fill="#000000">Nucleus</text>
</a>
</g>
</g>
<!-- Nucleon -->
<g id="node13" class="node">
<title>Nucleon</title>
<g id="a_node13"><a xlink:href="http://emmo.info/emmo/middle/materials#EMMO_50781fd9_a9e4_46ad_b7be_4500371d188d" xlink:title="Nucleon">
<ellipse fill="#ffffcc" stroke="#000000" cx="917.2428" cy="-100" rx="48.9926" ry="18"/>
<text text-anchor="middle" x="917.2428" y="-96.3" font-family="Times,serif" font-size="14.00" fill="#000000">Nucleon</text>
</a>
</g>
</g>
<!-- Nucleus&#45;&gt;Nucleon -->
<g id="edge20" class="edge">
<title>Nucleus&#45;&gt;Nucleon</title>
<path fill="none" stroke="#006400" d="M984.0062,-100C981.4106,-100 978.8149,-100 976.2193,-100"/>
<polygon fill="#006400" stroke="#006400" points="976.2077,-96.5001 966.2076,-100 976.2076,-103.5001 976.2077,-96.5001"/>
</g>
<!-- Subatomic -->
<g id="node22" class="node">
<title>Subatomic</title>
<g id="a_node22"><a xlink:href="http://emmo.info/emmo/middle/materials#EMMO_7d66bde4_b68d_41cc_b5fc_6fd98c5e2ff0" xlink:title="Subatomic">
<ellipse fill="#ffffcc" stroke="#000000" cx="917.2428" cy="-172" rx="59.5901" ry="18"/>
<text text-anchor="middle" x="917.2428" y="-168.3" font-family="Times,serif" font-size="14.00" fill="#000000">Subatomic</text>
</a>
</g>
</g>
<!-- Nucleus&#45;&gt;Subatomic -->
<g id="edge19" class="edge">
<title>Nucleus&#45;&gt;Subatomic</title>
<path fill="none" stroke="#000000" d="M1007.2895,-115.6229C991.2009,-125.6958 970.0435,-138.9422 952.2799,-150.0637"/>
<polygon fill="none" stroke="#000000" points="949.9633,-147.3847 943.3448,-155.6579 953.678,-153.3178 949.9633,-147.3847"/>
</g>
<!-- InterfaceModel -->
<g id="node2" class="node">
<title>InterfaceModel</title>
<g id="a_node2"><a xlink:href="http://www.emmc.info/emmc-csa/demo#DEMO_15116577-6557-4d9d-9eb5-cb54f0e618ad" xlink:title="InterfaceModel">
<ellipse fill="#ffffcc" stroke="#000000" cx="81.2428" cy="-100" rx="81.4863" ry="18"/>
<text text-anchor="middle" x="81.2428" y="-96.3" font-family="Times,serif" font-size="14.00" fill="#000000">InterfaceModel</text>
</a>
</g>
</g>
<!-- CrystalUnitCell -->
<g id="node5" class="node">
<title>CrystalUnitCell</title>
<g id="a_node5"><a xlink:href="http://www.emmc.info/emmc-csa/demo#DEMO_3e529aa6-c97c-4684-b679-849d10c59ca0" xlink:title="CrystalUnitCell">
<ellipse fill="#ffffcc" stroke="#000000" cx="301.2428" cy="-172" rx="83.3857" ry="18"/>
<text text-anchor="middle" x="301.2428" y="-168.3" font-family="Times,serif" font-size="14.00" fill="#000000">CrystalUnitCell</text>
</a>
</g>
</g>
<!-- InterfaceModel&#45;&gt;CrystalUnitCell -->
<g id="edge9" class="edge">
<title>InterfaceModel&#45;&gt;CrystalUnitCell</title>
<path fill="none" stroke="#000000" d="M126.8269,-114.9184C161.3715,-126.224 209.0027,-141.8123 245.762,-153.8427"/>
<polygon fill="none" stroke="#000000" points="244.7465,-157.1929 255.3391,-156.977 246.9238,-150.5401 244.7465,-157.1929"/>
</g>
<!-- Crystal -->
<g id="node3" class="node">
<title>Crystal</title>
<g id="a_node3"><a xlink:href="http://www.emmc.info/emmc-csa/demo#DEMO_2dd0c4d4-133c-4597-aeed-b7e42dd0183a" xlink:title="Crystal">
<ellipse fill="#ffffcc" stroke="#000000" cx="643.2428" cy="-23" rx="44.393" ry="18"/>
<text text-anchor="middle" x="643.2428" y="-19.3" font-family="Times,serif" font-size="14.00" fill="#000000">Crystal</text>
</a>
</g>
</g>
<!-- Crystal&#45;&gt;CrystalUnitCell -->
<g id="edge18" class="edge">
<title>Crystal&#45;&gt;CrystalUnitCell</title>
<path fill="none" stroke="#006400" d="M600.2132,-27.2232C511.6691,-36.3477 315.7075,-58.9464 296.2428,-82 281.9716,-98.9025 284.9857,-124.5801 290.547,-144.1882"/>
<polygon fill="#006400" stroke="#006400" points="287.2414,-145.3425 293.6094,-153.81 293.9117,-143.2195 287.2414,-145.3425"/>
</g>
<!-- Solid -->
<g id="node6" class="node">
<title>Solid</title>
<g id="a_node6"><a xlink:href="http://emmo.info/emmo/middle/materials#EMMO_a2b006f2_bbfd_4dba_bcaa_3fca20cd6be1" xlink:title="Solid">
<ellipse fill="#ffffcc" stroke="#000000" cx="643.2428" cy="-100" rx="34.394" ry="18"/>
<text text-anchor="middle" x="643.2428" y="-96.3" font-family="Times,serif" font-size="14.00" fill="#000000">Solid</text>
</a>
</g>
</g>
<!-- Crystal&#45;&gt;Solid -->
<g id="edge17" class="edge">
<title>Crystal&#45;&gt;Solid</title>
<path fill="none" stroke="#000000" d="M643.2428,-41.2479C643.2428,-50.3578 643.2428,-61.5826 643.2428,-71.7718"/>
<polygon fill="none" stroke="#000000" points="639.7429,-71.883 643.2428,-81.8831 646.7429,-71.8831 639.7429,-71.883"/>
</g>
<!-- Fluid -->
<g id="node4" class="node">
<title>Fluid</title>
<g id="a_node4"><a xlink:href="http://emmo.info/emmo/middle/materials#EMMO_87ac88ff_8379_4f5a_8c7b_424a8fff1ee8" xlink:title="Fluid">
<ellipse fill="#ffffcc" stroke="#000000" cx="215.2428" cy="-100" rx="34.394" ry="18"/>
<text text-anchor="middle" x="215.2428" y="-96.3" font-family="Times,serif" font-size="14.00" fill="#000000">Fluid</text>
</a>
</g>
</g>
<!-- Continuum -->
<g id="node9" class="node">
<title>Continuum</title>
<g id="a_node9"><a xlink:href="http://emmo.info/emmo/middle/materials#EMMO_8b0923ab_b500_477b_9ce9_8b3a3e4dc4f2" xlink:title="Continuum">
<ellipse fill="#ffffcc" stroke="#000000" cx="511.2428" cy="-172" rx="61.99" ry="18"/>
<text text-anchor="middle" x="511.2428" y="-168.3" font-family="Times,serif" font-size="14.00" fill="#000000">Continuum</text>
</a>
</g>
</g>
<!-- Fluid&#45;&gt;Continuum -->
<g id="edge24" class="edge">
<title>Fluid&#45;&gt;Continuum</title>
<path fill="none" stroke="#000000" d="M246.6397,-107.6371C295.8282,-119.6019 391.814,-142.9497 453.6557,-157.9923"/>
<polygon fill="none" stroke="#000000" points="453.1086,-161.4612 463.6525,-160.424 454.7631,-154.6596 453.1086,-161.4612"/>
</g>
<!-- MaterialState -->
<g id="node8" class="node">
<title>MaterialState</title>
<g id="a_node8"><a xlink:href="http://emmo.info/emmo/middle/materials#EMMO_20fff605_465f_4034_8696_e53e90ec83f4" xlink:title="MaterialState">
<ellipse fill="#ffc880" stroke="#000000" cx="917.2428" cy="-244" rx="75.2868" ry="18"/>
<text text-anchor="middle" x="917.2428" y="-240.3" font-family="Times,serif" font-size="14.00" fill="#000000">MaterialState</text>
</a>
</g>
</g>
<!-- CrystalUnitCell&#45;&gt;MaterialState -->
<g id="edge10" class="edge">
<title>CrystalUnitCell&#45;&gt;MaterialState</title>
<path fill="none" stroke="#000000" d="M372.2852,-181.4229C394.0797,-184.2536 418.1398,-187.3179 440.2428,-190 580.3373,-206.9996 743.7945,-225.1362 838.4152,-235.4681"/>
<polygon fill="none" stroke="#000000" points="838.1591,-238.9608 848.4797,-236.566 838.9183,-232.0021 838.1591,-238.9608"/>
</g>
<!-- BondedAtom -->
<g id="node12" class="node">
<title>BondedAtom</title>
<g id="a_node12"><a xlink:href="http://emmo.info/emmo/middle/materials#EMMO_8303a247_f9d9_4616_bdcd_f5cbd7b298e3" xlink:title="BondedAtom">
<ellipse fill="#ffffcc" stroke="#000000" cx="1168.2428" cy="-100" rx="70.3881" ry="18"/>
<text text-anchor="middle" x="1168.2428" y="-96.3" font-family="Times,serif" font-size="14.00" fill="#000000">BondedAtom</text>
</a>
</g>
</g>
<!-- CrystalUnitCell&#45;&gt;BondedAtom -->
<g id="edge11" class="edge">
<title>CrystalUnitCell&#45;&gt;BondedAtom</title>
<path fill="none" stroke="#006400" d="M370.7756,-161.9787C392.9391,-159.0575 417.5874,-156.0924 440.2428,-154 727.9064,-127.432 803.1701,-158.2318 1089.2428,-118 1095.4589,-117.1258 1101.9084,-116.0094 1108.321,-114.7619"/>
<polygon fill="#006400" stroke="#006400" points="1109.2359,-118.1472 1118.3288,-112.7094 1107.8295,-111.2899 1109.2359,-118.1472"/>
</g>
<!-- Solid&#45;&gt;Continuum -->
<g id="edge6" class="edge">
<title>Solid&#45;&gt;Continuum</title>
<path fill="none" stroke="#000000" d="M619.3386,-113.0387C599.8798,-123.6525 572.0424,-138.8366 549.4905,-151.1376"/>
<polygon fill="none" stroke="#000000" points="547.6088,-148.1771 540.5059,-156.0383 550.9608,-154.3224 547.6088,-148.1771"/>
</g>
<!-- Neutron -->
<g id="node7" class="node">
<title>Neutron</title>
<g id="a_node7"><a xlink:href="http://emmo.info/emmo/middle/materials#EMMO_df808271_df91_4f27_ba59_fa423c51896c" xlink:title="Neutron">
<ellipse fill="#ffffcc" stroke="#000000" cx="972.2428" cy="-23" rx="49.2915" ry="18"/>
<text text-anchor="middle" x="972.2428" y="-19.3" font-family="Times,serif" font-size="14.00" fill="#000000">Neutron</text>
</a>
</g>
</g>
<!-- Neutron&#45;&gt;Nucleon -->
<g id="edge14" class="edge">
<title>Neutron&#45;&gt;Nucleon</title>
<path fill="none" stroke="#000000" d="M959.7624,-40.4725C952.71,-50.3459 943.7566,-62.8807 935.8865,-73.8988"/>
<polygon fill="none" stroke="#000000" points="932.8285,-72.1584 929.8641,-82.3301 938.5246,-76.2271 932.8285,-72.1584"/>
</g>
<!-- Material -->
<g id="node10" class="node">
<title>Material</title>
<g id="a_node10"><a xlink:href="http://emmo.info/emmo/middle/physicalistic#EMMO_4207e895_8b83_4318_996a_72cfb32acd94" xlink:title="Material">
<ellipse fill="#ffffcc" stroke="#000000" stroke-width="2" cx="917.2428" cy="-316" rx="50.0912" ry="18"/>
<text text-anchor="middle" x="917.2428" y="-312.3" font-family="Times,serif" font-size="14.00" fill="#000000">Material</text>
</a>
</g>
</g>
<!-- MaterialState&#45;&gt;Material -->
<g id="edge22" class="edge">
<title>MaterialState&#45;&gt;Material</title>
<path fill="none" stroke="#000000" d="M917.2428,-262.1686C917.2428,-269.869 917.2428,-279.0257 917.2428,-287.5834"/>
<polygon fill="none" stroke="#000000" points="913.7429,-287.5867 917.2428,-297.5867 920.7429,-287.5868 913.7429,-287.5867"/>
</g>
<!-- Continuum&#45;&gt;MaterialState -->
<g id="edge2" class="edge">
<title>Continuum&#45;&gt;MaterialState</title>
<path fill="none" stroke="#000000" d="M564.3202,-181.4127C636.5679,-194.2251 766.0588,-217.189 846.496,-231.4538"/>
<polygon fill="none" stroke="#000000" points="846.0818,-234.9349 856.5394,-233.2349 847.3042,-228.0424 846.0818,-234.9349"/>
</g>
<!-- Proton -->
<g id="node11" class="node">
<title>Proton</title>
<g id="a_node11"><a xlink:href="http://emmo.info/emmo/middle/materials#EMMO_8f87e700_99a8_4427_8ffb_e493de05c217" xlink:title="Proton">
<ellipse fill="#ffffcc" stroke="#000000" cx="862.2428" cy="-23" rx="42.4939" ry="18"/>
<text text-anchor="middle" x="862.2428" y="-19.3" font-family="Times,serif" font-size="14.00" fill="#000000">Proton</text>
</a>
</g>
</g>
<!-- Proton&#45;&gt;Nucleon -->
<g id="edge23" class="edge">
<title>Proton&#45;&gt;Nucleon</title>
<path fill="none" stroke="#000000" d="M874.7231,-40.4725C881.7755,-50.3459 890.729,-62.8807 898.5991,-73.8988"/>
<polygon fill="none" stroke="#000000" points="895.961,-76.2271 904.6214,-82.3301 901.6571,-72.1584 895.961,-76.2271"/>
</g>
<!-- Atom -->
<g id="node14" class="node">
<title>Atom</title>
<g id="a_node14"><a xlink:href="http://emmo.info/emmo/middle/materials#EMMO_eb77076b_a104_42ac_a065_798b2d2809ad" xlink:title="Atom">
<ellipse fill="#ffffcc" stroke="#000000" cx="1031.2428" cy="-172" rx="35.194" ry="18"/>
<text text-anchor="middle" x="1031.2428" y="-168.3" font-family="Times,serif" font-size="14.00" fill="#000000">Atom</text>
</a>
</g>
</g>
<!-- BondedAtom&#45;&gt;Atom -->
<g id="edge7" class="edge">
<title>BondedAtom&#45;&gt;Atom</title>
<path fill="none" stroke="#000000" d="M1137.1554,-116.3379C1115.6029,-127.6648 1086.9226,-142.7376 1064.8431,-154.3414"/>
<polygon fill="none" stroke="#000000" points="1063.0483,-151.3307 1055.8246,-159.0811 1066.3049,-157.5271 1063.0483,-151.3307"/>
</g>
<!-- Nucleon&#45;&gt;Subatomic -->
<g id="edge26" class="edge">
<title>Nucleon&#45;&gt;Subatomic</title>
<path fill="none" stroke="#000000" d="M917.2428,-118.1686C917.2428,-125.869 917.2428,-135.0257 917.2428,-143.5834"/>
<polygon fill="none" stroke="#000000" points="913.7429,-143.5867 917.2428,-153.5867 920.7429,-143.5868 913.7429,-143.5867"/>
</g>
<!-- Atom&#45;&gt;Nucleus -->
<g id="edge5" class="edge">
<title>Atom&#45;&gt;Nucleus</title>
<path fill="none" stroke="#006400" d="M1031.4985,-153.5867C1031.6047,-145.9407 1031.7304,-136.8916 1031.848,-128.4274"/>
<polygon fill="#006400" stroke="#006400" points="1035.3511,-128.2163 1031.9904,-118.1686 1028.3518,-128.119 1035.3511,-128.2163"/>
</g>
<!-- Atom&#45;&gt;MaterialState -->
<g id="edge3" class="edge">
<title>Atom&#45;&gt;MaterialState</title>
<path fill="none" stroke="#000000" d="M1008.9918,-186.0532C993.0659,-196.1117 971.2876,-209.8665 952.9456,-221.4509"/>
<polygon fill="none" stroke="#000000" points="950.844,-218.6385 944.2581,-226.9377 954.582,-224.557 950.844,-218.6385"/>
</g>
<!-- ElectronCloud -->
<g id="node21" class="node">
<title>ElectronCloud</title>
<g id="a_node21"><a xlink:href="http://emmo.info/emmo/middle/materials#EMMO_1067b97a_84f8_4d22_8ace_b842b8ce355c" xlink:title="ElectronCloud">
<ellipse fill="#ffffcc" stroke="#000000" cx="773.2428" cy="-100" rx="77.1866" ry="18"/>
<text text-anchor="middle" x="773.2428" y="-96.3" font-family="Times,serif" font-size="14.00" fill="#000000">ElectronCloud</text>
</a>
</g>
</g>
<!-- Atom&#45;&gt;ElectronCloud -->
<g id="edge4" class="edge">
<title>Atom&#45;&gt;ElectronCloud</title>
<path fill="none" stroke="#006400" d="M1003.8482,-160.3741C998.0843,-158.117 992.0041,-155.8735 986.2428,-154 938.0462,-138.3272 882.5108,-124.3787 840.2329,-114.5855"/>
<polygon fill="#006400" stroke="#006400" points="840.8607,-111.1387 830.331,-112.3116 839.2939,-117.9611 840.8607,-111.1387"/>
</g>
<!-- Molecule -->
<g id="node15" class="node">
<title>Molecule</title>
<g id="a_node15"><a xlink:href="http://emmo.info/emmo/middle/materials#EMMO_3397f270_dfc1_4500_8f6f_4d0d85ac5f71" xlink:title="Molecule">
<ellipse fill="#ffffcc" stroke="#000000" cx="1137.2428" cy="-172" rx="52.7911" ry="18"/>
<text text-anchor="middle" x="1137.2428" y="-168.3" font-family="Times,serif" font-size="14.00" fill="#000000">Molecule</text>
</a>
</g>
</g>
<!-- Molecule&#45;&gt;MaterialState -->
<g id="edge1" class="edge">
<title>Molecule&#45;&gt;MaterialState</title>
<path fill="none" stroke="#000000" d="M1098.9217,-184.5414C1063.7397,-196.0556 1011.2305,-213.2404 971.6979,-226.1783"/>
<polygon fill="none" stroke="#000000" points="970.3606,-222.9332 961.9453,-229.3701 972.538,-229.586 970.3606,-222.9332"/>
</g>
<!-- RVE -->
<g id="node16" class="node">
<title>RVE</title>
<g id="a_node16"><a xlink:href="http://www.emmc.info/emmc-csa/demo#DEMO_3f022006-0a59-4bc6-8642-e068ad4e458a" xlink:title="RVE">
<ellipse fill="#ffffcc" stroke="#000000" cx="336.2428" cy="-100" rx="30.5947" ry="18"/>
<text text-anchor="middle" x="336.2428" y="-96.3" font-family="Times,serif" font-size="14.00" fill="#000000">RVE</text>
</a>
</g>
</g>
<!-- RVE&#45;&gt;Continuum -->
<g id="edge13" class="edge">
<title>RVE&#45;&gt;Continuum</title>
<path fill="none" stroke="#000000" d="M360.7093,-111.2072C365.8244,-113.4947 371.1963,-115.8564 376.2428,-118 405.2913,-130.3391 438.1666,-143.5059 464.2019,-153.7488"/>
<polygon fill="none" stroke="#000000" points="463.2355,-157.1293 473.8231,-157.5235 465.7922,-150.6129 463.2355,-157.1293"/>
</g>
<!-- IonAtom -->
<g id="node17" class="node">
<title>IonAtom</title>
<g id="a_node17"><a xlink:href="http://emmo.info/emmo/middle/materials#EMMO_db03061b_db31_4132_a47a_6a634846578b" xlink:title="IonAtom">
<ellipse fill="#ffffcc" stroke="#000000" cx="1412.2428" cy="-23" rx="50.0912" ry="18"/>
<text text-anchor="middle" x="1412.2428" y="-19.3" font-family="Times,serif" font-size="14.00" fill="#000000">IonAtom</text>
</a>
</g>
</g>
<!-- StandaloneAtom -->
<g id="node20" class="node">
<title>StandaloneAtom</title>
<g id="a_node20"><a xlink:href="http://emmo.info/emmo/middle/materials#EMMO_2fd3f574_5e93_47fe_afca_ed80b0a21ab4" xlink:title="StandaloneAtom">
<ellipse fill="#ffffcc" stroke="#000000" cx="1343.2428" cy="-100" rx="87.1846" ry="18"/>
<text text-anchor="middle" x="1343.2428" y="-96.3" font-family="Times,serif" font-size="14.00" fill="#000000">StandaloneAtom</text>
</a>
</g>
</g>
<!-- IonAtom&#45;&gt;StandaloneAtom -->
<g id="edge21" class="edge">
<title>IonAtom&#45;&gt;StandaloneAtom</title>
<path fill="none" stroke="#000000" d="M1396.5856,-40.4725C1387.6269,-50.47 1376.2228,-63.1962 1366.2605,-74.3136"/>
<polygon fill="none" stroke="#000000" points="1363.3839,-72.2792 1359.3168,-82.0623 1368.597,-76.9507 1363.3839,-72.2792"/>
</g>
<!-- Phase -->
<g id="node18" class="node">
<title>Phase</title>
<g id="a_node18"><a xlink:href="http://www.emmc.info/emmc-csa/demo#DEMO_11a50b9c-df3c-4ec0-82b7-5762b111f63d" xlink:title="Phase">
<ellipse fill="#ffffcc" stroke="#000000" cx="423.2428" cy="-100" rx="38.1938" ry="18"/>
<text text-anchor="middle" x="423.2428" y="-96.3" font-family="Times,serif" font-size="14.00" fill="#000000">Phase</text>
</a>
</g>
</g>
<!-- Phase&#45;&gt;Continuum -->
<g id="edge27" class="edge">
<title>Phase&#45;&gt;Continuum</title>
<path fill="none" stroke="#000000" d="M442.3375,-115.6229C454.0587,-125.213 469.2959,-137.6798 482.4603,-148.4507"/>
<polygon fill="none" stroke="#000000" points="480.3833,-151.2735 490.3392,-154.8971 484.816,-145.8558 480.3833,-151.2735"/>
</g>
<!-- NeutralAtom -->
<g id="node19" class="node">
<title>NeutralAtom</title>
<g id="a_node19"><a xlink:href="http://emmo.info/emmo/middle/materials#EMMO_4588526f_8553_4f4d_aa73_a483e88d599b" xlink:title="NeutralAtom">
<ellipse fill="#ffffcc" stroke="#000000" cx="1273.2428" cy="-23" rx="70.6878" ry="18"/>
<text text-anchor="middle" x="1273.2428" y="-19.3" font-family="Times,serif" font-size="14.00" fill="#000000">NeutralAtom</text>
</a>
</g>
</g>
<!-- NeutralAtom&#45;&gt;StandaloneAtom -->
<g id="edge8" class="edge">
<title>NeutralAtom&#45;&gt;StandaloneAtom</title>
<path fill="none" stroke="#000000" d="M1289.4781,-40.8589C1298.5781,-50.8688 1310.0808,-63.5218 1320.1092,-74.5531"/>
<polygon fill="none" stroke="#000000" points="1317.7789,-77.1929 1327.0955,-82.238 1322.9585,-72.4842 1317.7789,-77.1929"/>
</g>
<!-- StandaloneAtom&#45;&gt;Atom -->
<g id="edge12" class="edge">
<title>StandaloneAtom&#45;&gt;Atom</title>
<path fill="none" stroke="#000000" d="M1279.044,-112.2737C1206.0694,-126.3296 1094.5231,-148.1714 1075.2428,-154 1072.6653,-154.7792 1070.0302,-155.6521 1067.394,-156.5822"/>
<polygon fill="none" stroke="#000000" points="1066.0719,-153.34 1057.9436,-160.1356 1068.5356,-159.8922 1066.0719,-153.34"/>
</g>
<!-- ElectronCloud&#45;&gt;Subatomic -->
<g id="edge16" class="edge">
<title>ElectronCloud&#45;&gt;Subatomic</title>
<path fill="none" stroke="#000000" d="M805.9186,-116.3379C827.0689,-126.9131 854.7499,-140.7536 877.2178,-151.9875"/>
<polygon fill="none" stroke="#000000" points="875.6674,-155.1254 886.177,-156.4671 878.798,-148.8644 875.6674,-155.1254"/>
</g>
<!-- Subatomic&#45;&gt;MaterialState -->
<g id="edge25" class="edge">
<title>Subatomic&#45;&gt;MaterialState</title>
<path fill="none" stroke="#000000" d="M917.2428,-190.1686C917.2428,-197.869 917.2428,-207.0257 917.2428,-215.5834"/>
<polygon fill="none" stroke="#000000" points="913.7429,-215.5867 917.2428,-225.5867 920.7429,-215.5868 913.7429,-215.5867"/>
</g>
<!-- Boundary -->
<g id="node23" class="node">
<title>Boundary</title>
<g id="a_node23"><a xlink:href="http://www.emmc.info/emmc-csa/demo#DEMO_ee57b87c-00cd-47fb-9330-5303ddd214f8" xlink:title="Boundary">
<ellipse fill="#ffc880" stroke="#000000" cx="535.2428" cy="-100" rx="55.7903" ry="18"/>
<text text-anchor="middle" x="535.2428" y="-96.3" font-family="Times,serif" font-size="14.00" fill="#000000">Boundary</text>
</a>
</g>
</g>
<!-- Boundary&#45;&gt;Continuum -->
<g id="edge15" class="edge">
<title>Boundary&#45;&gt;Continuum</title>
<path fill="none" stroke="#000000" d="M529.1866,-118.1686C526.5916,-125.9537 523.5004,-135.2271 520.621,-143.8653"/>
<polygon fill="none" stroke="#000000" points="517.2225,-142.9931 517.3805,-153.5867 523.8633,-145.2067 517.2225,-142.9931"/>
</g>
<!-- key1 -->
<g id="node24" class="node">
<title>key1</title>
<text text-anchor="start" x="1618.2428" y="-28.8" font-family="Times,serif" font-size="14.00" fill="#000000">isA</text>
<text text-anchor="start" x="1490.2428" y="-9.8" font-family="Times,serif" font-size="14.00" fill="#000000">hasSpatialDirectPart</text>
</g>
<!-- key2 -->
<g id="node25" class="node">
<title>key2</title>
<text text-anchor="start" x="1693.2428" y="-28.8" font-family="Times,serif" font-size="14.00" fill="#000000"> </text>
<text text-anchor="start" x="1693.2428" y="-9.8" font-family="Times,serif" font-size="14.00" fill="#000000"> </text>
</g>
<!-- key1&#45;&gt;key2 -->
<g id="edge28" class="edge">
<title>key1:e&#45;&gt;key2:w</title>
<path fill="none" stroke="#006400" d="M1642.2428,-13C1660.1074,-13 1666.9811,-13 1680.8958,-13"/>
<polygon fill="#006400" stroke="#006400" points="1681.2428,-16.5001 1691.2428,-13 1681.2428,-9.5001 1681.2428,-16.5001"/>
</g>
<!-- key1&#45;&gt;key2 -->
<g id="edge29" class="edge">
<title>key1:e&#45;&gt;key2:w</title>
<path fill="none" stroke="#000000" d="M1642.2428,-33C1660.1074,-33 1666.9811,-33 1680.8958,-33"/>
<polygon fill="none" stroke="#000000" points="1681.2428,-36.5001 1691.2428,-33 1681.2428,-29.5001 1681.2428,-36.5001"/>
</g>
</g>
</svg>
